<?xml version="1.0" encoding="UTF-8"?>
<svg version="1.1" xmlns="http://www.w3.org/2000/svg" width="965" height="477">
<path d="M0 0 C318.45 0 636.9 0 965 0 C965 157.41 965 314.82 965 477 C646.55 477 328.1 477 0 477 C0 319.59 0 162.18 0 0 Z " fill="#F4F5F9" transform="translate(0,0)"/>
<path d="M0 0 C0.85829879 -0.00500704 1.71659758 -0.01001407 2.60090542 -0.01517284 C4.02645166 -0.00814934 4.02645166 -0.00814934 5.48079681 -0.00098395 C6.48877603 -0.00389084 7.49675524 -0.00679772 8.53527927 -0.00979269 C11.9521953 -0.01715895 15.36893546 -0.01011865 18.78585052 -0.00326896 C21.24453321 -0.00557077 23.70321521 -0.00874541 26.16189575 -0.01272345 C31.52780722 -0.0193607 36.8936656 -0.01971491 42.25957489 -0.01462913 C50.23865145 -0.00708702 58.21769389 -0.0109197 66.19677019 -0.01704574 C80.44455638 -0.02759682 94.69232468 -0.02665666 108.94011259 -0.02088792 C121.40830646 -0.01586426 133.87649375 -0.01453991 146.34468842 -0.0169332 C147.17052337 -0.01708597 147.99635832 -0.01723874 148.84721857 -0.01739614 C152.19923406 -0.01801878 155.55124955 -0.01865558 158.90326503 -0.01931567 C190.37194507 -0.02543886 221.84061368 -0.01987853 253.30929196 -0.00912188 C281.29041656 0.00036991 309.27152296 -0.00047932 337.2526474 -0.01004386 C368.66238688 -0.02074438 400.07211625 -0.02500467 431.4818573 -0.01881933 C434.82789866 -0.01817786 438.17394002 -0.01755218 441.51998138 -0.0169332 C442.34391122 -0.01677505 443.16784106 -0.01661689 444.01673847 -0.01645395 C456.47957351 -0.01417538 468.94240126 -0.01684627 481.40523529 -0.02189231 C495.57068268 -0.02759899 509.73610932 -0.02620654 523.90155411 -0.01533082 C531.83737506 -0.0094396 539.77315111 -0.00910163 547.70897093 -0.01662317 C553.61989645 -0.02160945 559.53078188 -0.01623763 565.44170284 -0.00667402 C567.84408465 -0.00442491 570.24647241 -0.00560969 572.64885044 -0.0104256 C575.8939462 -0.01643589 579.13879075 -0.01034235 582.38387299 -0.00098395 C583.33423715 -0.00566629 584.28460131 -0.01034862 585.26376438 -0.01517284 C586.55121256 -0.00766228 586.55121256 -0.00766228 587.8646698 0 C588.60762598 0.00013552 589.35058215 0.00027104 590.11605215 0.00041066 C591.9323349 0.25069833 591.9323349 0.25069833 593.9323349 2.25069833 C594.18630219 4.48983407 594.18630219 4.48983407 594.19112396 7.3112452 C594.19742828 8.36573861 594.2037326 9.42023202 594.21022797 10.50667977 C594.20415527 12.22075021 594.20415527 12.22075021 594.1979599 13.96944833 C594.20083008 15.72267404 594.20083008 15.72267404 594.20375824 17.51131845 C594.20512116 19.98613346 594.20141731 22.46095559 594.19307709 24.93575692 C594.18237936 28.73491037 594.19296908 32.53359092 594.2057724 36.33272958 C594.20445082 38.73247021 594.20188847 41.13221055 594.1979599 43.53194833 C594.20200836 44.67466195 594.20605682 45.81737557 594.21022797 46.99471688 C594.20392365 48.04921029 594.19761932 49.1037037 594.19112396 50.19015145 C594.18873718 51.58674996 594.18873718 51.58674996 594.18630219 53.01156259 C593.9323349 55.25069833 593.9323349 55.25069833 591.9323349 57.25069833 C590.11605215 57.50098599 590.11605215 57.50098599 587.8646698 57.50139666 C586.57722162 57.50890721 586.57722162 57.50890721 585.26376438 57.5165695 C583.83821814 57.509546 583.83821814 57.509546 582.38387299 57.50238061 C581.37589377 57.50528749 580.36791456 57.50819437 579.32939053 57.51118934 C575.9124745 57.51855561 572.49573434 57.51151531 569.07881927 57.50466561 C566.62013659 57.50696743 564.16145459 57.51014206 561.70277405 57.5141201 C556.33686258 57.52075735 550.9710042 57.52111157 545.60509491 57.51602578 C537.62601835 57.50848367 529.64697591 57.51231635 521.66789961 57.5184424 C507.42011342 57.52899348 493.17234512 57.52805331 478.92455721 57.52228457 C466.45636334 57.51726092 453.98817605 57.51593657 441.51998138 57.51832986 C440.69414643 57.51848263 439.86831148 57.5186354 439.01745123 57.5187928 C435.66543574 57.51941544 432.31342025 57.52005223 428.96140477 57.52071233 C397.49272473 57.52683551 366.02405612 57.52127519 334.55537784 57.51051853 C306.57425324 57.50102675 278.59314684 57.50187598 250.6120224 57.51144052 C219.20228292 57.52214104 187.79255355 57.52640133 156.3828125 57.52021599 C153.03677114 57.51957452 149.69072978 57.51894884 146.34468842 57.51832986 C145.52075858 57.5181717 144.69682874 57.51801355 143.84793133 57.5178506 C131.38509629 57.51557204 118.92226854 57.51824293 106.45943451 57.52328897 C92.29398712 57.52899564 78.12856048 57.52760319 63.96311569 57.51672748 C56.02729474 57.51083626 48.09151869 57.51049829 40.15569887 57.51801983 C34.24477335 57.52300611 28.33388792 57.51763429 22.42296696 57.50807068 C20.02058515 57.50582157 17.61819739 57.50700634 15.21581936 57.51182225 C11.9707236 57.51783254 8.72587905 57.51173901 5.48079681 57.50238061 C4.53043265 57.50706294 3.58006849 57.51174527 2.60090542 57.5165695 C1.74260663 57.51156246 0.88430784 57.50655542 0 57.50139666 C-0.74295618 57.50126114 -1.48591235 57.50112562 -2.25138235 57.50098599 C-4.0676651 57.25069833 -4.0676651 57.25069833 -6.0676651 55.25069833 C-6.32163239 53.01156259 -6.32163239 53.01156259 -6.32645416 50.19015145 C-6.33591064 48.60841134 -6.33591064 48.60841134 -6.34555817 46.99471688 C-6.3415097 45.85200326 -6.33746124 44.70928964 -6.3332901 43.53194833 C-6.33520355 42.36313119 -6.337117 41.19431405 -6.33908844 39.99007821 C-6.34045136 37.5152632 -6.33674751 35.04044107 -6.32840729 32.56563973 C-6.31770956 28.76648628 -6.32829928 24.96780574 -6.3411026 21.16866708 C-6.33978102 18.76892645 -6.33721867 16.36918611 -6.3332901 13.96944833 C-6.33733856 12.8267347 -6.34138702 11.68402108 -6.34555817 10.50667977 C-6.33925385 9.45218637 -6.33294952 8.39769296 -6.32645416 7.3112452 C-6.32486298 6.38017953 -6.32327179 5.44911386 -6.32163239 4.48983407 C-5.84858258 0.31912863 -3.69136427 0.00067332 0 0 Z " fill="#FEFEFE" transform="translate(217.06766510009766,300.7493016719818)"/>
<path d="M0 0 C0.85829879 -0.00500704 1.71659758 -0.01001407 2.60090542 -0.01517284 C4.02645166 -0.00814934 4.02645166 -0.00814934 5.48079681 -0.00098395 C6.48877603 -0.00389084 7.49675524 -0.00679772 8.53527927 -0.00979269 C11.9521953 -0.01715895 15.36893546 -0.01011865 18.78585052 -0.00326896 C21.24453321 -0.00557077 23.70321521 -0.00874541 26.16189575 -0.01272345 C31.52780722 -0.0193607 36.8936656 -0.01971491 42.25957489 -0.01462913 C50.23865145 -0.00708702 58.21769389 -0.0109197 66.19677019 -0.01704574 C80.44455638 -0.02759682 94.69232468 -0.02665666 108.94011259 -0.02088792 C121.40830646 -0.01586426 133.87649375 -0.01453991 146.34468842 -0.0169332 C147.17052337 -0.01708597 147.99635832 -0.01723874 148.84721857 -0.01739614 C152.19923406 -0.01801878 155.55124955 -0.01865558 158.90326503 -0.01931567 C190.37194507 -0.02543886 221.84061368 -0.01987853 253.30929196 -0.00912188 C281.29041656 0.00036991 309.27152296 -0.00047932 337.2526474 -0.01004386 C368.66238688 -0.02074438 400.07211625 -0.02500467 431.4818573 -0.01881933 C434.82789866 -0.01817786 438.17394002 -0.01755218 441.51998138 -0.0169332 C442.34391122 -0.01677505 443.16784106 -0.01661689 444.01673847 -0.01645395 C456.47957351 -0.01417538 468.94240126 -0.01684627 481.40523529 -0.02189231 C495.57068268 -0.02759899 509.73610932 -0.02620654 523.90155411 -0.01533082 C531.83737506 -0.0094396 539.77315111 -0.00910163 547.70897093 -0.01662317 C553.61989645 -0.02160945 559.53078188 -0.01623763 565.44170284 -0.00667402 C567.84408465 -0.00442491 570.24647241 -0.00560969 572.64885044 -0.0104256 C575.8939462 -0.01643589 579.13879075 -0.01034235 582.38387299 -0.00098395 C583.33423715 -0.00566629 584.28460131 -0.01034862 585.26376438 -0.01517284 C586.55121256 -0.00766228 586.55121256 -0.00766228 587.8646698 0 C588.60762598 0.00013552 589.35058215 0.00027104 590.11605215 0.00041066 C591.9323349 0.25069833 591.9323349 0.25069833 593.9323349 2.25069833 C594.18630219 4.48983407 594.18630219 4.48983407 594.19112396 7.3112452 C594.19742828 8.36573861 594.2037326 9.42023202 594.21022797 10.50667977 C594.20415527 12.22075021 594.20415527 12.22075021 594.1979599 13.96944833 C594.20083008 15.72267404 594.20083008 15.72267404 594.20375824 17.51131845 C594.20512116 19.98613346 594.20141731 22.46095559 594.19307709 24.93575692 C594.18237936 28.73491037 594.19296908 32.53359092 594.2057724 36.33272958 C594.20445082 38.73247021 594.20188847 41.13221055 594.1979599 43.53194833 C594.20200836 44.67466195 594.20605682 45.81737557 594.21022797 46.99471688 C594.20392365 48.04921029 594.19761932 49.1037037 594.19112396 50.19015145 C594.18873718 51.58674996 594.18873718 51.58674996 594.18630219 53.01156259 C593.9323349 55.25069833 593.9323349 55.25069833 591.9323349 57.25069833 C590.11605215 57.50098599 590.11605215 57.50098599 587.8646698 57.50139666 C586.57722162 57.50890721 586.57722162 57.50890721 585.26376438 57.5165695 C583.83821814 57.509546 583.83821814 57.509546 582.38387299 57.50238061 C581.37589377 57.50528749 580.36791456 57.50819437 579.32939053 57.51118934 C575.9124745 57.51855561 572.49573434 57.51151531 569.07881927 57.50466561 C566.62013659 57.50696743 564.16145459 57.51014206 561.70277405 57.5141201 C556.33686258 57.52075735 550.9710042 57.52111157 545.60509491 57.51602578 C537.62601835 57.50848367 529.64697591 57.51231635 521.66789961 57.5184424 C507.42011342 57.52899348 493.17234512 57.52805331 478.92455721 57.52228457 C466.45636334 57.51726092 453.98817605 57.51593657 441.51998138 57.51832986 C440.69414643 57.51848263 439.86831148 57.5186354 439.01745123 57.5187928 C435.66543574 57.51941544 432.31342025 57.52005223 428.96140477 57.52071233 C397.49272473 57.52683551 366.02405612 57.52127519 334.55537784 57.51051853 C306.57425324 57.50102675 278.59314684 57.50187598 250.6120224 57.51144052 C219.20228292 57.52214104 187.79255355 57.52640133 156.3828125 57.52021599 C153.03677114 57.51957452 149.69072978 57.51894884 146.34468842 57.51832986 C145.52075858 57.5181717 144.69682874 57.51801355 143.84793133 57.5178506 C131.38509629 57.51557204 118.92226854 57.51824293 106.45943451 57.52328897 C92.29398712 57.52899564 78.12856048 57.52760319 63.96311569 57.51672748 C56.02729474 57.51083626 48.09151869 57.51049829 40.15569887 57.51801983 C34.24477335 57.52300611 28.33388792 57.51763429 22.42296696 57.50807068 C20.02058515 57.50582157 17.61819739 57.50700634 15.21581936 57.51182225 C11.9707236 57.51783254 8.72587905 57.51173901 5.48079681 57.50238061 C4.53043265 57.50706294 3.58006849 57.51174527 2.60090542 57.5165695 C1.74260663 57.51156246 0.88430784 57.50655542 0 57.50139666 C-0.74295618 57.50126114 -1.48591235 57.50112562 -2.25138235 57.50098599 C-4.0676651 57.25069833 -4.0676651 57.25069833 -6.0676651 55.25069833 C-6.32163239 53.01156259 -6.32163239 53.01156259 -6.32645416 50.19015145 C-6.33591064 48.60841134 -6.33591064 48.60841134 -6.34555817 46.99471688 C-6.3415097 45.85200326 -6.33746124 44.70928964 -6.3332901 43.53194833 C-6.33520355 42.36313119 -6.337117 41.19431405 -6.33908844 39.99007821 C-6.34045136 37.5152632 -6.33674751 35.04044107 -6.32840729 32.56563973 C-6.31770956 28.76648628 -6.32829928 24.96780574 -6.3411026 21.16866708 C-6.33978102 18.76892645 -6.33721867 16.36918611 -6.3332901 13.96944833 C-6.33733856 12.8267347 -6.34138702 11.68402108 -6.34555817 10.50667977 C-6.33925385 9.45218637 -6.33294952 8.39769296 -6.32645416 7.3112452 C-6.32486298 6.38017953 -6.32327179 5.44911386 -6.32163239 4.48983407 C-5.84858258 0.31912863 -3.69136427 0.00067332 0 0 Z " fill="#FDFDFD" transform="translate(217.06766510009766,227.7493016719818)"/>
<path d="M0 0 C0.82362087 0.00468233 1.64724174 0.00936466 2.49582082 0.01418889 C3.37041851 0.011282 4.2450162 0.00837512 5.14611685 0.00538015 C8.10931305 -0.00198301 11.07230624 0.00505272 14.0355013 0.01190388 C16.1683249 0.00960194 18.30114771 0.00642722 20.43396884 0.00244939 C26.32022392 -0.00594392 32.20641463 -0.00175287 38.09267002 0.00442183 C44.43084186 0.00892687 50.76900224 0.00197229 57.10717183 -0.00353801 C68.81451127 -0.01193854 80.52182445 -0.01118069 92.22916456 -0.00571508 C103.04314731 -0.00069109 113.85712248 0.00063277 124.67110616 -0.00176036 C125.38741972 -0.00191313 126.10373327 -0.0020659 126.8417533 -0.0022233 C129.74923995 -0.00284594 132.6567266 -0.00348274 135.56421324 -0.00414283 C162.85874408 -0.01026579 190.15326175 -0.00470605 217.44779056 0.00605096 C241.71649579 0.01554272 265.98518004 0.01469349 290.25388509 0.00512898 C317.49734569 -0.00557192 344.74079464 -0.00983162 371.98425704 -0.00364649 C374.88655676 -0.00300502 377.78885648 -0.00237935 380.69115621 -0.00176036 C381.76314764 -0.00152313 381.76314764 -0.00152313 382.85679546 -0.00128111 C393.66603665 0.0009973 404.47526945 -0.00167314 415.28450948 -0.00671947 C427.57066287 -0.01242658 439.85678517 -0.01083936 452.14293689 -0.00015798 C458.4174885 0.00511632 464.6919974 0.00712573 470.96654874 0.00054371 C476.701681 -0.00538169 482.43673065 -0.00219751 488.17185533 0.00849882 C490.25526201 0.01074742 492.33867557 0.00956425 494.42207789 0.00474724 C497.23696741 -0.00126569 500.05156759 0.00483315 502.86644155 0.01418889 C504.10187285 0.00716539 504.10187285 0.00716539 505.36226237 0 C510.95283045 0.03757043 510.95283045 0.03757043 513.18113118 2.26587117 C513.43992025 5.12329304 513.43992025 5.12329304 513.44675618 8.73462117 C513.44933431 10.02755085 513.45191243 11.32048054 513.45456868 12.65258992 C513.45037923 13.327253 513.44618978 14.00191609 513.44187337 14.69702351 C513.43117188 16.75803274 513.44177061 18.81817036 513.45456868 20.87915242 C513.4507015 22.81854695 513.4507015 22.81854695 513.44675618 24.79712117 C513.44450032 25.98885945 513.44224447 27.18059773 513.43992025 28.40844929 C513.18113118 31.26587117 513.18113118 31.26587117 511.18113118 33.26587117 C508.37707002 33.4632738 505.67174782 33.53350178 502.86644155 33.51755345 C501.99184386 33.52046033 501.11724617 33.52336721 500.21614552 33.52636218 C497.25294932 33.53372535 494.28995613 33.52668962 491.32676107 33.51983845 C489.19393747 33.52214039 487.06111466 33.52531511 484.92829353 33.52929294 C479.04203845 33.53768626 473.15584774 33.5334952 467.26959234 33.5273205 C460.93142051 33.52281546 454.59326013 33.52977005 448.25509053 33.53528035 C436.5477511 33.54368088 424.84043792 33.54292302 413.13309781 33.53745741 C402.31911506 33.53243343 391.50513989 33.53110956 380.69115621 33.5335027 C379.97484265 33.53365547 379.2585291 33.53380824 378.52050907 33.53396564 C375.61302242 33.53458828 372.70553577 33.53522507 369.79804912 33.53588517 C342.50351829 33.54200813 315.20900062 33.53644838 287.91447181 33.52569137 C263.64576658 33.51619961 239.37708233 33.51704885 215.10837728 33.52661335 C187.86491668 33.53731426 160.62146773 33.54157395 133.37800533 33.53538883 C130.47570561 33.53474736 127.57340588 33.53412168 124.67110616 33.5335027 C123.59911473 33.53326547 123.59911473 33.53326547 122.50546691 33.53302344 C111.69622572 33.53074504 100.88699292 33.53341547 90.07775289 33.5384618 C77.7915995 33.54416891 65.5054772 33.5425817 53.21932548 33.53190032 C46.94477387 33.52662602 40.67026497 33.5246166 34.39571363 33.53119862 C28.66058137 33.53712402 22.92553172 33.53393985 17.19040704 33.52324352 C15.10700035 33.52099491 13.0235868 33.52217809 10.94018447 33.52699509 C8.12529496 33.53300803 5.31069477 33.52690918 2.49582082 33.51755345 C1.26038951 33.52457695 1.26038951 33.52457695 0 33.53174233 C-5.59056808 33.4941719 -5.59056808 33.4941719 -7.81886882 31.26587117 C-8.07765788 28.40844929 -8.07765788 28.40844929 -8.08449382 24.79712117 C-8.08707194 23.50419148 -8.08965007 22.21126179 -8.09230632 20.87915242 C-8.08811686 20.20448933 -8.08392741 19.52982625 -8.079611 18.83471882 C-8.06890952 16.77370959 -8.07950824 14.71357197 -8.09230632 12.65258992 C-8.08972819 11.35966023 -8.08715007 10.06673054 -8.08449382 8.73462117 C-8.08223796 7.54288289 -8.0799821 6.3511446 -8.07765788 5.12329304 C-7.58680165 -0.29650067 -4.77414961 0.03208383 0 0 Z " fill="#EFF1F6" transform="translate(257.8188688158989,80.73412883281708)"/>
<path d="M0 0 C17.17612393 -0.04510719 34.35219751 -0.081966 51.52836418 -0.10362434 C59.50314323 -0.11394695 67.47788293 -0.12802602 75.45263672 -0.15087891 C82.40158238 -0.17078273 89.35049955 -0.18370927 96.29947293 -0.18817699 C99.98057717 -0.19078949 103.6615999 -0.19695028 107.34267807 -0.21146011 C111.44707643 -0.22750807 115.55133211 -0.22798163 119.65576172 -0.22705078 C121.49642212 -0.23783661 121.49642212 -0.23783661 123.37426758 -0.24884033 C125.04439407 -0.24471634 125.04439407 -0.24471634 126.7482605 -0.24050903 C127.7198303 -0.24235262 128.69140011 -0.24419621 129.69241142 -0.24609566 C132 0 132 0 134 2 C134.25878906 4.85742188 134.25878906 4.85742188 134.265625 8.46875 C134.26820313 9.76167969 134.27078125 11.05460937 134.2734375 12.38671875 C134.26924805 13.06138184 134.26505859 13.73604492 134.26074219 14.43115234 C134.2500407 16.49216157 134.26063943 18.55229919 134.2734375 20.61328125 C134.27085937 21.90621094 134.26828125 23.19914062 134.265625 24.53125 C134.26336914 25.72298828 134.26111328 26.91472656 134.25878906 28.14257812 C134 31 134 31 132 33 C129.69241142 33.24609566 129.69241142 33.24609566 126.7482605 33.24050903 C125.63484283 33.24325836 124.52142517 33.24600769 123.37426758 33.24884033 C122.14716064 33.24164978 120.92005371 33.23445923 119.65576172 33.22705078 C117.72411667 33.22748886 117.72411667 33.22748886 115.75344849 33.22793579 C112.21643419 33.22851099 108.6795548 33.21672973 105.14257193 33.20278788 C101.44833651 33.19030833 97.75409821 33.18911222 94.05984497 33.18673706 C87.06168652 33.18051411 80.06359036 33.16409231 73.06545937 33.14403808 C65.09943063 33.1217044 57.13339896 33.11069203 49.16734672 33.10064721 C32.77818891 33.07972674 16.38911691 33.04304039 0 33 C0 22.11 0 11.22 0 0 Z " fill="#665EFE" transform="translate(637,81)"/>
<path d="M0 0 C195.36 0 390.72 0 592 0 C588.62499704 3.37500296 588.62499704 3.37500296 584.87340736 3.37604749 C583.60447384 3.38731333 583.60447384 3.38731333 582.30990529 3.39880675 C581.37849745 3.39178325 580.4470896 3.38475975 579.48745728 3.37752342 C578.49550755 3.38188374 577.50355783 3.38624407 576.48154902 3.39073652 C573.12509639 3.40176998 569.76904796 3.39123308 566.41259766 3.38095093 C563.9950114 3.38440429 561.57742671 3.38916667 559.15984535 3.39513266 C553.88677702 3.40508277 548.61383023 3.40562413 543.34076691 3.39799118 C535.49972959 3.38667168 527.65877033 3.39243033 519.81773359 3.4016161 C505.81594335 3.41743778 491.81419409 3.41603444 477.81239992 3.40737936 C465.55943816 3.3998422 453.30649144 3.39785815 441.05352783 3.4014473 C440.24177021 3.40167645 439.43001259 3.40190561 438.59365626 3.40214171 C435.29873279 3.40307567 432.00380933 3.40403087 428.70888589 3.405021 C397.77976313 3.41420461 366.85066652 3.40586714 335.9215478 3.38973031 C308.42359598 3.37549276 280.92568583 3.37676661 253.42773438 3.39111328 C222.55633848 3.40716604 191.6849657 3.4135534 160.81356621 3.40427649 C157.52453487 3.40331429 154.23550352 3.40237577 150.94647217 3.4014473 C150.13658776 3.40121006 149.32670334 3.40097283 148.49227698 3.40072841 C136.24494672 3.39731138 123.99763313 3.40131538 111.75030518 3.40888596 C97.82900792 3.4174482 83.90775819 3.41535251 69.98646688 3.39904372 C62.18858196 3.39021065 54.39079984 3.38969453 46.59291751 3.40098225 C40.78293289 3.40846718 34.97303989 3.40039609 29.16306567 3.38605852 C26.80309231 3.38268746 24.4431053 3.38445637 22.08314061 3.39168589 C18.89274006 3.40071503 15.70291254 3.39154736 12.51254272 3.37752342 C11.58113488 3.38454692 10.64972703 3.39157042 9.69009471 3.39880675 C8.84413903 3.3912962 7.99818334 3.38378564 7.12659264 3.37604749 C6.39649463 3.37584421 5.66639663 3.37564094 4.91417444 3.3754315 C3 3 3 3 0 0 Z " fill="#DBDDE1" transform="translate(215,358)"/>
<path d="M0 0 C195.36 0 390.72 0 592 0 C588.62499704 3.37500296 588.62499704 3.37500296 584.87340736 3.37604749 C583.60447384 3.38731333 583.60447384 3.38731333 582.30990529 3.39880675 C581.37849745 3.39178325 580.4470896 3.38475975 579.48745728 3.37752342 C578.49550755 3.38188374 577.50355783 3.38624407 576.48154902 3.39073652 C573.12509639 3.40176998 569.76904796 3.39123308 566.41259766 3.38095093 C563.9950114 3.38440429 561.57742671 3.38916667 559.15984535 3.39513266 C553.88677702 3.40508277 548.61383023 3.40562413 543.34076691 3.39799118 C535.49972959 3.38667168 527.65877033 3.39243033 519.81773359 3.4016161 C505.81594335 3.41743778 491.81419409 3.41603444 477.81239992 3.40737936 C465.55943816 3.3998422 453.30649144 3.39785815 441.05352783 3.4014473 C440.24177021 3.40167645 439.43001259 3.40190561 438.59365626 3.40214171 C435.29873279 3.40307567 432.00380933 3.40403087 428.70888589 3.405021 C397.77976313 3.41420461 366.85066652 3.40586714 335.9215478 3.38973031 C308.42359598 3.37549276 280.92568583 3.37676661 253.42773438 3.39111328 C222.55633848 3.40716604 191.6849657 3.4135534 160.81356621 3.40427649 C157.52453487 3.40331429 154.23550352 3.40237577 150.94647217 3.4014473 C150.13658776 3.40121006 149.32670334 3.40097283 148.49227698 3.40072841 C136.24494672 3.39731138 123.99763313 3.40131538 111.75030518 3.40888596 C97.82900792 3.4174482 83.90775819 3.41535251 69.98646688 3.39904372 C62.18858196 3.39021065 54.39079984 3.38969453 46.59291751 3.40098225 C40.78293289 3.40846718 34.97303989 3.40039609 29.16306567 3.38605852 C26.80309231 3.38268746 24.4431053 3.38445637 22.08314061 3.39168589 C18.89274006 3.40071503 15.70291254 3.39154736 12.51254272 3.37752342 C11.58113488 3.38454692 10.64972703 3.39157042 9.69009471 3.39880675 C8.84413903 3.3912962 7.99818334 3.38378564 7.12659264 3.37604749 C6.39649463 3.37584421 5.66639663 3.37564094 4.91417444 3.3754315 C3 3 3 3 0 0 Z " fill="#DBDDE1" transform="translate(215,285)"/>
<path d="M0 0 C195.36 0 390.72 0 592 0 C588.62499704 3.37500296 588.62499704 3.37500296 584.87340736 3.37604749 C583.60447384 3.38731333 583.60447384 3.38731333 582.30990529 3.39880675 C581.37849745 3.39178325 580.4470896 3.38475975 579.48745728 3.37752342 C578.49550755 3.38188374 577.50355783 3.38624407 576.48154902 3.39073652 C573.12509639 3.40176998 569.76904796 3.39123308 566.41259766 3.38095093 C563.9950114 3.38440429 561.57742671 3.38916667 559.15984535 3.39513266 C553.88677702 3.40508277 548.61383023 3.40562413 543.34076691 3.39799118 C535.49972959 3.38667168 527.65877033 3.39243033 519.81773359 3.4016161 C505.81594335 3.41743778 491.81419409 3.41603444 477.81239992 3.40737936 C465.55943816 3.3998422 453.30649144 3.39785815 441.05352783 3.4014473 C440.24177021 3.40167645 439.43001259 3.40190561 438.59365626 3.40214171 C435.29873279 3.40307567 432.00380933 3.40403087 428.70888589 3.405021 C397.77976313 3.41420461 366.85066652 3.40586714 335.9215478 3.38973031 C308.42359598 3.37549276 280.92568583 3.37676661 253.42773438 3.39111328 C222.55633848 3.40716604 191.6849657 3.4135534 160.81356621 3.40427649 C157.52453487 3.40331429 154.23550352 3.40237577 150.94647217 3.4014473 C150.13658776 3.40121006 149.32670334 3.40097283 148.49227698 3.40072841 C136.24494672 3.39731138 123.99763313 3.40131538 111.75030518 3.40888596 C97.82900792 3.4174482 83.90775819 3.41535251 69.98646688 3.39904372 C62.18858196 3.39021065 54.39079984 3.38969453 46.59291751 3.40098225 C40.78293289 3.40846718 34.97303989 3.40039609 29.16306567 3.38605852 C26.80309231 3.38268746 24.4431053 3.38445637 22.08314061 3.39168589 C18.89274006 3.40071503 15.70291254 3.39154736 12.51254272 3.37752342 C11.58113488 3.38454692 10.64972703 3.39157042 9.69009471 3.39880675 C8.84413903 3.3912962 7.99818334 3.38378564 7.12659264 3.37604749 C6.39649463 3.37584421 5.66639663 3.37564094 4.91417444 3.3754315 C3 3 3 3 0 0 Z " fill="#DBDDE1" transform="translate(215,145)"/>
<path d="M0 0 C2.01822917 0.06510417 4.03645833 0.13020833 6.0546875 0.1953125 C6.0546875 0.8553125 6.0546875 1.5153125 6.0546875 2.1953125 C5.3946875 2.1953125 4.7346875 2.1953125 4.0546875 2.1953125 C3.7246875 3.8453125 3.3946875 5.4953125 3.0546875 7.1953125 C1.4046875 7.1953125 -0.2453125 7.1953125 -1.9453125 7.1953125 C-1.9453125 8.1853125 -1.9453125 9.1753125 -1.9453125 10.1953125 C0.0346875 10.1953125 2.0146875 10.1953125 4.0546875 10.1953125 C4.43687517 11.85145907 4.76863852 13.51988274 5.0546875 15.1953125 C4.0546875 16.1953125 4.0546875 16.1953125 0.4921875 16.2578125 C-0.6421875 16.2371875 -1.7765625 16.2165625 -2.9453125 16.1953125 C-3.84425008 13.10296722 -4.10880484 10.28733893 -4.1328125 7.0703125 C-4.14699219 6.20148437 -4.16117188 5.33265625 -4.17578125 4.4375 C-3.87182388 1.4803554 -3.03462297 0.30468102 0 0 Z " fill="#818284" transform="translate(555.9453125,38.8046875)"/>
<path d="M0 0 C-1.49128001 3.79598549 -3.65733441 5.71720399 -7 8 C-7.99 8 -8.98 8 -10 8 C-10 5 -10 5 -8.5 3.3125 C-7.7575 2.6628125 -7.7575 2.6628125 -7 2 C-8.65 2 -10.3 2 -12 2 C-12 4.31 -12 6.62 -12 9 C-9.69 9 -7.38 9 -5 9 C-4.67 8.01 -4.34 7.02 -4 6 C-3.4375 7.9375 -3.4375 7.9375 -3 10 C-4 11 -4 11 -6.03125 11.1328125 C-6.8459375 11.13023437 -7.660625 11.12765625 -8.5 11.125 C-9.3146875 11.12757813 -10.129375 11.13015625 -10.96875 11.1328125 C-13 11 -13 11 -14 10 C-14.0979057 8.50261876 -14.12974864 7.00057108 -14.125 5.5 C-14.12757813 4.6853125 -14.13015625 3.870625 -14.1328125 3.03125 C-14 1 -14 1 -13 0 C-11.57109694 -0.26085451 -10.13057853 -0.45967185 -8.6875 -0.625 C-7.90761719 -0.72039062 -7.12773438 -0.81578125 -6.32421875 -0.9140625 C-3.9912715 -1.00032273 -2.22069091 -0.68094412 0 0 Z " fill="#52816B" transform="translate(745,324)"/>
<path d="M0 0 C-1.49128001 3.79598549 -3.65733441 5.71720399 -7 8 C-7.99 8 -8.98 8 -10 8 C-10 5 -10 5 -8.5 3.3125 C-7.7575 2.6628125 -7.7575 2.6628125 -7 2 C-8.65 2 -10.3 2 -12 2 C-12 4.31 -12 6.62 -12 9 C-9.69 9 -7.38 9 -5 9 C-4.67 8.01 -4.34 7.02 -4 6 C-3.4375 7.9375 -3.4375 7.9375 -3 10 C-4 11 -4 11 -6.03125 11.1328125 C-6.8459375 11.13023437 -7.660625 11.12765625 -8.5 11.125 C-9.3146875 11.12757813 -10.129375 11.13015625 -10.96875 11.1328125 C-13 11 -13 11 -14 10 C-14.0979057 8.50261876 -14.12974864 7.00057108 -14.125 5.5 C-14.12757813 4.6853125 -14.13015625 3.870625 -14.1328125 3.03125 C-14 1 -14 1 -13 0 C-11.57109694 -0.26085451 -10.13057853 -0.45967185 -8.6875 -0.625 C-7.90761719 -0.72039062 -7.12773438 -0.81578125 -6.32421875 -0.9140625 C-3.9912715 -1.00032273 -2.22069091 -0.68094412 0 0 Z " fill="#52816B" transform="translate(745,251)"/>
<path d="M0 0 C0.66 0 1.32 0 2 0 C2.99 1.98 3.98 3.96 5 6 C5.66 5.01 6.32 4.02 7 3 C7.66 2.01 8.32 1.02 9 0 C9.66 0 10.32 0 11 0 C11 5.28 11 10.56 11 16 C10.34 16 9.68 16 9 16 C8.67 13.03 8.34 10.06 8 7 C7.01 7.99 6.02 8.98 5 10 C4.34 9.01 3.68 8.02 3 7 C2.67 9.97 2.34 12.94 2 16 C1.34 16 0.68 16 0 16 C0 10.72 0 5.44 0 0 Z " fill="#56585A" transform="translate(498,35)"/>
<path d="M0 0 C2.875 -0.125 2.875 -0.125 6 0 C8 2 8 2 8.1953125 4.3828125 C8.17210937 5.28773437 8.14890625 6.19265625 8.125 7.125 C8.10695313 8.03507812 8.08890625 8.94515625 8.0703125 9.8828125 C8.04710937 10.58148438 8.02390625 11.28015625 8 12 C1.9453125 12.1953125 1.9453125 12.1953125 0 12 C-0.66 11.34 -1.32 10.68 -2 10 C-1.625 7.875 -1.625 7.875 -1 6 C2.465 5.505 2.465 5.505 6 5 C5.67 4.34 5.34 3.68 5 3 C1.97065509 2.34227572 1.97065509 2.34227572 -1 2 C-0.67 1.34 -0.34 0.68 0 0 Z " fill="#525457" transform="translate(540,39)"/>
<path d="M0 0 C2.875 -0.125 2.875 -0.125 6 0 C8 2 8 2 8.1953125 4.3828125 C8.17210937 5.28773437 8.14890625 6.19265625 8.125 7.125 C8.10695313 8.03507812 8.08890625 8.94515625 8.0703125 9.8828125 C8.04710937 10.58148438 8.02390625 11.28015625 8 12 C1.9453125 12.1953125 1.9453125 12.1953125 0 12 C-0.66 11.34 -1.32 10.68 -2 10 C-1.625 7.875 -1.625 7.875 -1 6 C2.465 5.505 2.465 5.505 6 5 C5.67 4.34 5.34 3.68 5 3 C1.97065509 2.34227572 1.97065509 2.34227572 -1 2 C-0.67 1.34 -0.34 0.68 0 0 Z " fill="#525457" transform="translate(447,39)"/>
<path d="M0 0 C1.670625 0.061875 1.670625 0.061875 3.375 0.125 C3.42899736 1.58292884 3.46779177 3.04142712 3.5 4.5 C3.52320313 5.31210938 3.54640625 6.12421875 3.5703125 6.9609375 C3.375 9.125 3.375 9.125 1.375 11.125 C-1.75 11.25 -1.75 11.25 -4.625 11.125 C-4.295 10.465 -3.965 9.805 -3.625 9.125 C-1.5625 8.5 -1.5625 8.5 0.375 8.125 C-1.275 7.795 -2.925 7.465 -4.625 7.125 C-5.25 4.75 -5.25 4.75 -5.625 2.125 C-3.625 0.125 -3.625 0.125 0 0 Z " fill="#DCDFE6" transform="translate(281.625,94.875)"/>
<path d="M0 0 C2.375 -0.125 2.375 -0.125 5 0 C7 2 7 2 7.1953125 4.3828125 C7.17210937 5.28773437 7.14890625 6.19265625 7.125 7.125 C7.10695313 8.03507812 7.08890625 8.94515625 7.0703125 9.8828125 C7.04710937 10.58148438 7.02390625 11.28015625 7 12 C4.36 12 1.72 12 -1 12 C-1.625 9.625 -1.625 9.625 -2 7 C0 5 0 5 3.125 4.875 C4.07375 4.91625 5.0225 4.9575 6 5 C5.67 4.34 5.34 3.68 5 3 C3.02 3 1.04 3 -1 3 C-0.67 2.01 -0.34 1.02 0 0 Z " fill="#555659" transform="translate(514,39)"/>
<path d="M0 0 C2.64 0 5.28 0 8 0 C8.09765625 6.15234375 8.09765625 6.15234375 8 8 C7 9 7 9 3.4375 9.0625 C2.303125 9.041875 1.16875 9.02125 0 9 C0 6.03 0 3.06 0 0 Z " fill="#882830" transform="translate(758,326)"/>
<path d="M0 0 C2.64 0 5.28 0 8 0 C8.09765625 6.15234375 8.09765625 6.15234375 8 8 C7 9 7 9 3.4375 9.0625 C2.303125 9.041875 1.16875 9.02125 0 9 C0 6.03 0 3.06 0 0 Z " fill="#882830" transform="translate(758,253)"/>
<path d="M0 0 C0.33 0 0.66 0 1 0 C1 4.29 1 8.58 1 13 C-0.98 13 -2.96 13 -5 13 C-7 10 -7 10 -6.625 7.3125 C-6.41875 6.549375 -6.2125 5.78625 -6 5 C-4.35 4.67 -2.7 4.34 -1 4 C-0.67 2.68 -0.34 1.36 0 0 Z " fill="#5B5C5F" transform="translate(291,323)"/>
<path d="M0 0 C0 1.65 0 3.3 0 5 C-2.31 5 -4.62 5 -7 5 C-6.67 5.99 -6.34 6.98 -6 8 C-4.02 8 -2.04 8 0 8 C-0.33 8.99 -0.66 9.98 -1 11 C-3.74086056 11.22223194 -5.43963721 11.34781139 -7.8125 9.875 C-9.55198782 7.12844028 -9.39769128 5.18153026 -9 2 C-6.6888271 -1.98035333 -4.06268971 -0.99310193 0 0 Z " fill="#757779" transform="translate(574,40)"/>
<path d="M0 0 C1.134375 0.020625 2.26875 0.04125 3.4375 0.0625 C2.4475 0.5575 2.4475 0.5575 1.4375 1.0625 C0.78194881 3.58983235 0.78194881 3.58983235 0.4375 6.0625 C-0.8825 6.0625 -2.2025 6.0625 -3.5625 6.0625 C-3.5625 6.7225 -3.5625 7.3825 -3.5625 8.0625 C-1.9125 8.0625 -0.2625 8.0625 1.4375 8.0625 C1.4375 9.3825 1.4375 10.7025 1.4375 12.0625 C-0.5425 12.0625 -2.5225 12.0625 -4.5625 12.0625 C-5.92338895 7.97983314 -5.24648693 5.30321899 -4.5625 1.0625 C-3.5625 0.0625 -3.5625 0.0625 0 0 Z " fill="#717375" transform="translate(365.5625,253.9375)"/>
<path d="M0 0 C2.00720923 0.28674418 4.0085944 0.61866701 6 1 C6.625 3.3125 6.625 3.3125 7 6 C6.01 7.485 6.01 7.485 5 9 C2.5 9.375 2.5 9.375 0 9 C-2 6 -2 6 -1.6875 3.375 C-1 1 -1 1 0 0 Z " fill="#626466" transform="translate(275,327)"/>
<path d="M0 0 C0.99 1.485 0.99 1.485 2 3 C5.06556598 3.73343428 5.06556598 3.73343428 8 4 C8 5.98 8 7.96 8 10 C1.125 11 1.125 11 0 11 C0 7.37 0 3.74 0 0 Z " fill="#AAA5FF" transform="translate(696,92)"/>
<path d="M0 0 C0.66 0 1.32 0 2 0 C2.33 2.97 2.66 5.94 3 9 C4.32 7.68 5.64 6.36 7 5 C7.66 5.33 8.32 5.66 9 6 C8.01 6.99 7.02 7.98 6 9 C6.28875 9.5775 6.5775 10.155 6.875 10.75 C7.91666667 12.83333333 8.95833333 14.91666667 10 17 C7.11562221 15.70700306 5.12780579 14.34058637 3 12 C2.67 13.65 2.34 15.3 2 17 C1.34 17 0.68 17 0 17 C0 11.39 0 5.78 0 0 Z " fill="#46484A" transform="translate(472,34)"/>
<path d="M0 0 C1.66611905 -0.042721 3.33382885 -0.04063832 5 0 C6 1 6 1 6.09765625 2.84765625 C6.06510417 4.8984375 6.03255208 6.94921875 6 9 C4.02 9 2.04 9 0 9 C-0.84454356 5.62182575 -1.10844919 3.32534757 0 0 Z " fill="#CBCBCC" transform="translate(351,254)"/>
<path d="M0 0 C1.66611905 -0.042721 3.33382885 -0.04063832 5 0 C6 1 6 1 6.09765625 2.84765625 C6.06510417 4.8984375 6.03255208 6.94921875 6 9 C4.02 9 2.04 9 0 9 C-0.84454356 5.62182575 -1.10844919 3.32534757 0 0 Z " fill="#CBCBCC" transform="translate(275,254)"/>
<path d="M0 0 C3 0 6 0 9 0 C7.68 0.33 6.36 0.66 5 1 C5 1.66 5 2.32 5 3 C6.32 3.33 7.64 3.66 9 4 C9 5.32 9 6.64 9 8 C6.03 8 3.06 8 0 8 C0 5.36 0 2.72 0 0 Z " fill="#D0D4DC" transform="translate(351,95)"/>
<path d="M0 0 C6.15234375 -0.09765625 6.15234375 -0.09765625 8 0 C9 1 9 1 9.0625 4.5625 C9.041875 5.696875 9.02125 6.83125 9 8 C8.34 7.34 7.68 6.68 7 6 C7.33 5.34 7.66 4.68 8 4 C5.13275314 4.57344937 4.1385485 4.8614515 2 7 C1.67 6.01 1.34 5.02 1 4 C-0.32 5.32 -1.64 6.64 -3 8 C-3.33 6.68 -3.66 5.36 -4 4 C-3.34 4 -2.68 4 -2 4 C-1.34 2.68 -0.68 1.36 0 0 Z " fill="#CBCFD7" transform="translate(306,95)"/>
<path d="M0 0 C4.875 0.875 4.875 0.875 6 2 C6.04092937 4.33297433 6.04241723 6.66705225 6 9 C3.69 9 1.38 9 -1 9 C-1.33 7.35 -1.66 5.7 -2 4 C-0.35 3.34 1.3 2.68 3 2 C2.01 1.34 1.02 0.68 0 0 Z " fill="#8A8B8D" transform="translate(330,254)"/>
<path d="M0 0 C4 4 4 4 5 6 C5.33 4.02 5.66 2.04 6 0 C6.66 0 7.32 0 8 0 C8 3.96 8 7.92 8 12 C7.34 12 6.68 12 6 12 C4.02 8.535 4.02 8.535 2 5 C1.67 7.31 1.34 9.62 1 12 C0.67 12 0.34 12 0 12 C0 8.04 0 4.08 0 0 Z " fill="#5E6062" transform="translate(263,324)"/>
<path d="M0 0 C0.78375 0.04125 1.5675 0.0825 2.375 0.125 C2.375 1.115 2.375 2.105 2.375 3.125 C0.725 2.795 -0.925 2.465 -2.625 2.125 C-2.625 2.785 -2.625 3.445 -2.625 4.125 C-1.655625 4.3725 -0.68625 4.62 0.3125 4.875 C3.375 6.125 3.375 6.125 4.375 8.125 C4.375 8.785 4.375 9.445 4.375 10.125 C2.375 12.125 2.375 12.125 -0.75 12.25 C-2.173125 12.188125 -2.173125 12.188125 -3.625 12.125 C-3.955 11.135 -4.285 10.145 -4.625 9.125 C-2.315 9.455 -0.005 9.785 2.375 10.125 C2.375 9.135 2.375 8.145 2.375 7.125 C1.59125 7.0425 0.8075 6.96 0 6.875 C-2.625 6.125 -2.625 6.125 -3.9375 4.0625 C-4.164375 3.423125 -4.39125 2.78375 -4.625 2.125 C-2.625 0.125 -2.625 0.125 0 0 Z " fill="#5D5E61" transform="translate(463.625,38.875)"/>
<path d="M0 0 C3.63 0 7.26 0 11 0 C11 0.66 11 1.32 11 2 C9.68 2 8.36 2 7 2 C7 6.62 7 11.24 7 16 C6.34 16 5.68 16 5 16 C5 11.38 5 6.76 5 2 C3.35 2 1.7 2 0 2 C0 1.34 0 0.68 0 0 Z " fill="#5B5D5F" transform="translate(431,35)"/>
<path d="M0 0 C2.625 0.375 2.625 0.375 5 1 C5.33 1.99 5.66 2.98 6 4 C4.02 4 2.04 4 0 4 C0.33 4.99 0.66 5.98 1 7 C2.65 7 4.3 7 6 7 C5.67 7.66 5.34 8.32 5 9 C2.625 9.125 2.625 9.125 0 9 C-2 7 -2 7 -2.25 4.5 C-2 2 -2 2 0 0 Z " fill="#757678" transform="translate(297,327)"/>
<path d="M0 0 C2.625 0.375 2.625 0.375 5 1 C5.33 1.99 5.66 2.98 6 4 C4.02 4 2.04 4 0 4 C0.33 4.99 0.66 5.98 1 7 C2.65 7 4.3 7 6 7 C5.67 7.66 5.34 8.32 5 9 C2.625 9.125 2.625 9.125 0 9 C-2 7 -2 7 -2.25 4.5 C-2 2 -2 2 0 0 Z " fill="#757678" transform="translate(373,254)"/>
<path d="M0 0 C2.625 -0.1875 2.625 -0.1875 5 0 C5.66 1.32 6.32 2.64 7 4 C4.69 4 2.38 4 0 4 C0.33 4.66 0.66 5.32 1 6 C2.65 6 4.3 6 6 6 C5.67 6.66 5.34 7.32 5 8 C3.35 8 1.7 8 0 8 C-1.125 5.6875 -1.125 5.6875 -2 3 C-1.34 2.01 -0.68 1.02 0 0 Z " fill="#CACFD7" transform="translate(265,95)"/>
<path d="M0 0 C2.31 0 4.62 0 7 0 C7 0.99 7 1.98 7 3 C5.68 3 4.36 3 3 3 C2.67 5.97 2.34 8.94 2 12 C1.34 12 0.68 12 0 12 C0 8.04 0 4.08 0 0 Z " fill="#505254" transform="translate(580,39)"/>
<path d="M0 0 C3 0 3 0 8 1 C8 4.63 8 8.26 8 12 C7.67 12 7.34 12 7 12 C6.67 9.03 6.34 6.06 6 3 C4.68 3.33 3.36 3.66 2 4 C1.67 6.64 1.34 9.28 1 12 C0.67 12 0.34 12 0 12 C0 8.04 0 4.08 0 0 Z " fill="#434548" transform="translate(526,39)"/>
<path d="M0 0 C0.66 0 1.32 0 2 0 C2 5.28 2 10.56 2 16 C1.34 16 0.68 16 0 16 C-0.19389096 13.5211787 -0.38040123 11.04219069 -0.5625 8.5625 C-0.61857422 7.85544922 -0.67464844 7.14839844 -0.73242188 6.41992188 C-0.86190993 4.61572163 -0.93521608 2.80768048 -1 1 C-0.67 0.67 -0.34 0.34 0 0 Z " fill="#5F6163" transform="translate(507,35)"/>
<path d="M0 0 C1.65 0 3.3 0 5 0 C4.67 0.99 4.34 1.98 4 3 C3.34 3 2.68 3 2 3 C2 3.99 2 4.98 2 6 C2.78375 5.525625 3.5675 5.05125 4.375 4.5625 C5.88948678 3.66101977 7.4235897 2.78820515 9 2 C8.34 3.65 7.68 5.3 7 7 C4.69 7 2.38 7 0 7 C0 4.69 0 2.38 0 0 Z " fill="#E4EBE8" transform="translate(733,326)"/>
<path d="M0 0 C1.65 0 3.3 0 5 0 C4.67 0.99 4.34 1.98 4 3 C3.34 3 2.68 3 2 3 C2 3.99 2 4.98 2 6 C2.78375 5.525625 3.5675 5.05125 4.375 4.5625 C5.88948678 3.66101977 7.4235897 2.78820515 9 2 C8.34 3.65 7.68 5.3 7 7 C4.69 7 2.38 7 0 7 C0 4.69 0 2.38 0 0 Z " fill="#E4EBE8" transform="translate(733,253)"/>
<path d="M0 0 C1.10844919 3.32534757 0.84454356 5.62182575 0 9 C-1.32 9.33 -2.64 9.66 -4 10 C-4.33 8.35 -4.66 6.7 -5 5 C-4.360625 4.731875 -3.72125 4.46375 -3.0625 4.1875 C-0.66868314 3.11332248 -0.66868314 3.11332248 0 0 Z " fill="#EAEDF2" transform="translate(346,92)"/>
<path d="M0 0 C1.99954746 -0.04254356 4.00041636 -0.04080783 6 0 C7 1 7 1 7.09765625 2.84765625 C7.06510417 4.8984375 7.03255208 6.94921875 7 9 C6.67 9 6.34 9 6 9 C5.67 6.69 5.34 4.38 5 2 C4.34 2 3.68 2 3 2 C2.67 4.31 2.34 6.62 2 9 C1.34 9 0.68 9 0 9 C0 6.03 0 3.06 0 0 Z " fill="#5E5F62" transform="translate(339,254)"/>
<path d="M0 0 C3.375 -0.125 3.375 -0.125 7 0 C7.66 0.66 8.32 1.32 9 2 C8.625 5.125 8.625 5.125 8 8 C7.67 8 7.34 8 7 8 C6.67 6.02 6.34 4.04 6 2 C5.01 2 4.02 2 3 2 C2.67 3.98 2.34 5.96 2 8 C1.34 8 0.68 8 0 8 C0 5.36 0 2.72 0 0 Z " fill="#D1CEFF" transform="translate(707,95)"/>
<path d="M0 0 C0.66 0 1.32 0 2 0 C2.33 1.98 2.66 3.96 3 6 C3.99 5.67 4.98 5.34 6 5 C6.33 3.35 6.66 1.7 7 0 C7.33 0 7.66 0 8 0 C8 2.64 8 5.28 8 8 C5.69 8 3.38 8 1 8 C-0.35439668 5.29120665 -0.06501451 2.99066732 0 0 Z " fill="#C9C6FF" transform="translate(684,95)"/>
<path d="M0 0 C0.99 0 1.98 0 3 0 C3.33 1.98 3.66 3.96 4 6 C2.0625 6.5625 2.0625 6.5625 0 7 C-1 6 -1 6 -1.125 3.5 C-1 1 -1 1 0 0 Z " fill="#E9E9EA" transform="translate(276,328)"/>
<path d="M0 0 C2.31 0 4.62 0 7 0 C7 0.66 7 1.32 7 2 C6.360625 2.226875 5.72125 2.45375 5.0625 2.6875 C2.72806339 3.85250896 2.72806339 3.85250896 2.25 6.625 C2.1675 7.40875 2.085 8.1925 2 9 C1.34 9 0.68 9 0 9 C0 6.03 0 3.06 0 0 Z " fill="#808283" transform="translate(383,254)"/>
<path d="M0 0 C0.66 0 1.32 0 2 0 C2.05399736 1.45792884 2.09279177 2.91642712 2.125 4.375 C2.14820313 5.18710938 2.17140625 5.99921875 2.1953125 6.8359375 C2 9 2 9 0 11 C-3.125 11.125 -3.125 11.125 -6 11 C-5.67 10.34 -5.34 9.68 -5 9 C-3.68 9 -2.36 9 -1 9 C-1.020625 7.700625 -1.04125 6.40125 -1.0625 5.0625 C-1.08399454 3.70834367 -1.07148199 2.35243917 -1 1 C-0.67 0.67 -0.34 0.34 0 0 Z " fill="#C1C6D0" transform="translate(283,95)"/>
<path d="M0 0 C1.66611905 -0.042721 3.33382885 -0.04063832 5 0 C6 1 6 1 6.09765625 2.84765625 C6.06510417 4.8984375 6.03255208 6.94921875 6 9 C4.02 9 2.04 9 0 9 C1.65 7.35 3.3 5.7 5 4 C3.68 3.67 2.36 3.34 1 3 C1.99 2.67 2.98 2.34 4 2 C2.35 2 0.7 2 -1 2 C-0.67 1.34 -0.34 0.68 0 0 Z " fill="#5C5E60" transform="translate(351,254)"/>
<path d="M0 0 C1.66611905 -0.042721 3.33382885 -0.04063832 5 0 C6 1 6 1 6.09765625 2.84765625 C6.06510417 4.8984375 6.03255208 6.94921875 6 9 C4.02 9 2.04 9 0 9 C1.65 7.35 3.3 5.7 5 4 C3.68 3.67 2.36 3.34 1 3 C1.99 2.67 2.98 2.34 4 2 C2.35 2 0.7 2 -1 2 C-0.67 1.34 -0.34 0.68 0 0 Z " fill="#5C5E60" transform="translate(275,254)"/>
<path d="M0 0 C2.31 0 4.62 0 7 0 C6.01 0.495 6.01 0.495 5 1 C4.34444881 3.52733235 4.34444881 3.52733235 4 6 C2.68 5.67 1.36 5.34 0 5 C0 3.35 0 1.7 0 0 Z " fill="#A0A1A2" transform="translate(362,254)"/>
<path d="M0 0 C1.32 0.66 2.64 1.32 4 2 C3.67 3.32 3.34 4.64 3 6 C1.68 6 0.36 6 -1 6 C-1.042721 4.33388095 -1.04063832 2.66617115 -1 1 C-0.67 0.67 -0.34 0.34 0 0 Z " fill="#EEEEEE" transform="translate(287,328)"/>
<path d="M0 0 C0.66 0 1.32 0 2 0 C2 0.66 2 1.32 2 2 C2.66 2.33 3.32 2.66 4 3 C3.34 3 2.68 3 2 3 C2 4.98 2 6.96 2 9 C2.66 9.33 3.32 9.66 4 10 C2.68 9.67 1.36 9.34 0 9 C-1.125 2.25 -1.125 2.25 0 0 Z " fill="#CBC9FF" transform="translate(730,93)"/>
<path d="M0 0 C0.99 0.33 1.98 0.66 3 1 C2.125 4.875 2.125 4.875 1 6 C-0.99958364 6.04080783 -3.00045254 6.04254356 -5 6 C-5.33 5.01 -5.66 4.02 -6 3 C-3.69 3.33 -1.38 3.66 1 4 C0.67 2.68 0.34 1.36 0 0 Z " fill="#55575A" transform="translate(465,45)"/>
<path d="M0 0 C0.66 0 1.32 0 2 0 C3.05404945 3.98196457 2.84098656 6.98195309 2 11 C1.34 11 0.68 11 0 11 C0 7.37 0 3.74 0 0 Z " fill="#C9CDD6" transform="translate(325,92)"/>
<path d="M0 0 C0.66 0 1.32 0 2 0 C2 0.99 2 1.98 2 3 C3.32 3.33 4.64 3.66 6 4 C4.35 4.33 2.7 4.66 1 5 C1 6.98 1 8.96 1 11 C0.67 11 0.34 11 0 11 C0 7.37 0 3.74 0 0 Z " fill="#BEC3CD" transform="translate(363,92)"/>
<path d="M0 0 C-0.33 1.32 -0.66 2.64 -1 4 C-2.65 4 -4.3 4 -6 4 C-6 3.01 -6 2.02 -6 1 C-4 0 -4 0 0 0 Z " fill="#E4E4E5" transform="translate(520,45)"/>
<path d="M0 0 C2.875 -0.125 2.875 -0.125 6 0 C8 2 8 2 8 5 C7.34 5 6.68 5 6 5 C5.67 4.34 5.34 3.68 5 3 C1.97065509 2.34227572 1.97065509 2.34227572 -1 2 C-0.67 1.34 -0.34 0.68 0 0 Z " fill="#67686A" transform="translate(540,39)"/>
<path d="M0 0 C2.875 -0.125 2.875 -0.125 6 0 C8 2 8 2 8 5 C7.34 5 6.68 5 6 5 C5.67 4.34 5.34 3.68 5 3 C1.97065509 2.34227572 1.97065509 2.34227572 -1 2 C-0.67 1.34 -0.34 0.68 0 0 Z " fill="#67686A" transform="translate(447,39)"/>
<path d="M0 0 C1.32 0 2.64 0 4 0 C3.67 1.32 3.34 2.64 3 4 C1.35 4 -0.3 4 -2 4 C-1.34 2.68 -0.68 1.36 0 0 Z " fill="#EDEDED" transform="translate(542,45)"/>
<path d="M0 0 C1.32 0 2.64 0 4 0 C3.67 1.32 3.34 2.64 3 4 C1.35 4 -0.3 4 -2 4 C-1.34 2.68 -0.68 1.36 0 0 Z " fill="#EDEDED" transform="translate(449,45)"/>
<path d="M0 0 C-1.15173355 2.46800047 -2.04783565 4.04783565 -4 6 C-4.99 5.67 -5.98 5.34 -7 5 C-2.25 0 -2.25 0 0 0 Z " fill="#125335" transform="translate(742,326)"/>
<path d="M0 0 C-1.15173355 2.46800047 -2.04783565 4.04783565 -4 6 C-4.99 5.67 -5.98 5.34 -7 5 C-2.25 0 -2.25 0 0 0 Z " fill="#125335" transform="translate(742,253)"/>
<path d="M0 0 C1.32 0 2.64 0 4 0 C3.67 1.32 3.34 2.64 3 4 C1.68 4 0.36 4 -1 4 C-0.67 2.68 -0.34 1.36 0 0 Z " fill="#E0E3E9" transform="translate(310,99)"/>
</svg>
